#!OML:ASF H:\Not Pregnant\Project 1\Capture day 1\Session 1\non-pregnant.ASF
:FULLY-SPECIFIED
:DEGREES
812
root -5.03524 15.7285 33.6932 121.641 -76.3171 -114.439
lowerback -8.75907 1.86312 7.71416
upperback -3.50285 1.58145 3.05338
thorax 1.3886 0.670561 -1.00229
lowerneck 27.497 -9.99025 -22.2841
upperneck -5.55352 -29.4323 53.1961
head 9.42352 -21.8422 30.0793
rclavicle -1.15792e-014 -1.39149e-014
rhumerus -32.3943 10.296 -92.3079
rradius 26.0984
rwrist 20.5198
rhand -6.54708 3.54219
rfingers 7.12502
rthumb 19.3064 -25.5194
lclavicle -1.15792e-014 -1.39149e-014
lhumerus -41.9075 -12.234 95.5703
lradius 33.2347
lwrist 40.1459
lhand -16.9333 -16.5792
lfingers 7.12502
lthumb 9.29966 13.1957
rfemur -11.9888 -4.91562 36.2198
rtibia 21.6583
rfoot -18.8674 9.15365
rtoes -9.77847
lfemur -22.0538 -5.60969 -0.0981561
ltibia 37.4078
lfoot -20.6831 5.09574
ltoes -28.8799
813
root -5.04382 15.7321 33.7085 121.927 -76.3085 -114.7
lowerback -8.76504 1.88563 7.6654
upperback -3.50973 1.61659 3.02719
thorax 1.38693 0.688424 -0.998765
lowerneck 27.5093 -10.0047 -22.296
upperneck -5.50696 -29.4403 53.1582
head 9.41592 -21.8268 30.008
rclavicle 2.28851e-014 -1.43125e-014
rhumerus -32.3875 10.1635 -92.2606
rradius 26.0333
rwrist 20.7439
rhand -6.49053 3.6971
rfingers 7.12502
rthumb 19.3607 -25.3591
lclavicle 2.28851e-014 -1.43125e-014
lhumerus -41.9096 -12.2646 95.5372
lradius 33.2175
lwrist 40.0982
lhand -16.9787 -16.5787
lfingers 7.12502
lthumb 9.25591 13.1981
rfemur -11.9452 -4.85442 36.1343
rtibia 21.5725
rfoot -18.8338 9.15141
rtoes -9.84809
lfemur -21.9968 -5.38229 -0.188373
ltibia 37.3134
lfoot -20.7124 4.90062
ltoes -28.9787
814
root -5.05229 15.7359 33.7241 122.218 -76.3032 -114.967
lowerback -8.76735 1.90795 7.61637
upperback -3.51669 1.65203 2.99907
thorax 1.38319 0.706413 -0.997154
lowerneck 27.5375 -10.0061 -22.3388
upperneck -5.46819 -29.4454 53.1196
head 9.4147 -21.8189 29.9702
rclavicle 1.44864e-014 2.94201e-014
rhumerus -32.3973 10.0973 -92.2542
rradius 25.982
rwrist 20.8935
rhand -6.47908 3.78078
rfingers 7.12502
rthumb 19.3718 -25.2743
lclavicle 1.44864e-014 2.94201e-014
lhumerus -41.9057 -12.2876 95.4958
lradius 33.1914
lwrist 40.0702
lhand -17.0151 -16.6058
lfingers 7.12502
lthumb 9.22081 13.1726
rfemur -11.8965 -4.78464 36.0441
rtibia 21.4768
rfoot -18.794 9.13849
rtoes -9.92679
lfemur -21.9381 -5.13782 -0.284382
ltibia 37.2126
lfoot -20.7396 4.68804
ltoes -29.0902
815
root -5.06065 15.74 33.7399 122.532 -76.3047 -115.255
lowerback -8.77051 1.92789 7.56689
upperback -3.52289 1.68458 2.96442
thorax 1.38066 0.723088 -1.00233
lowerneck 27.5617 -10.0039 -22.3814
upperneck -5.42881 -29.4429 53.0803
head 9.40929 -21.8067 29.9355
rclavicle 8.44835e-015 1.74931e-014
rhumerus -32.4183 10.0837 -92.2914
rradius 25.9418
rwrist 20.9754
rhand -6.51459 3.78702
rfingers 7.12502
rthumb 19.3376 -25.2715
lclavicle 8.44835e-015 1.74931e-014
lhumerus -41.889 -12.283 95.4224
lradius 33.1643
lwrist 40.0966
lhand -16.9954 -16.6293
lfingers 7.12502
lthumb 9.23978 13.1483
rfemur -11.8461 -4.69463 35.9442
rtibia 21.374
rfoot -18.7485 9.10214
rtoes -10.0317
lfemur -21.8792 -4.87858 -0.391159
ltibia 37.1045
lfoot -20.7647 4.45594
ltoes -29.1931
816
root -5.06891 15.744 33.7553 122.821 -76.2919 -115.521
lowerback -8.76935 1.94845 7.52232
upperback -3.52717 1.71738 2.93989
thorax 1.37758 0.739816 -0.999776
lowerneck 27.5866 -10 -22.4304
upperneck -5.39549 -29.4355 53.0408
head 9.40041 -21.7921 29.9059
rclavicle -5.49143e-015 -6.75868e-015
rhumerus -32.4448 10.1085 -92.3351
rradius 25.908
rwrist 21.0271
rhand -6.57153 3.75701
rfingers 7.12502
rthumb 19.2829 -25.307
lclavicle -5.49143e-015 -6.75868e-015
lhumerus -41.8689 -12.2731 95.3523
lradius 33.1366
lwrist 40.1473
lhand -16.9788 -16.6617
lfingers 7.12502
lthumb 9.25584 13.1151
rfemur -11.7873 -4.58267 35.8605
rtibia 21.2636
rfoot -18.6937 9.04642
rtoes -10.1411
lfemur -21.815 -4.60057 -0.480014
ltibia 36.9909
lfoot -20.7934 4.19278
ltoes -29.2591
817
root -5.07703 15.7487 33.7716 123.161 -76.3014 -115.833
lowerback -8.77106 1.96762 7.46728
upperback -3.53309 1.74962 2.90383
thorax 1.37438 0.756402 -1.00338
lowerneck 27.6057 -9.99534 -22.4735
upperneck -5.36047 -29.422 53.0012
head 9.38705 -21.7727 29.8741
rclavicle -8.89561e-015 -1.39149e-014
rhumerus -32.4662 10.1116 -92.3797
rradius 25.8639
rwrist 21.1033
rhand -6.64471 3.7132
rfingers 7.12502
rthumb 19.2125 -25.3578
lclavicle -8.89561e-015 -1.39149e-014
lhumerus -41.853 -12.2815 95.2878
lradius 33.1087
lwrist 40.1429
lhand -17.0014 -16.6718
lfingers 7.12502
lthumb 9.234 13.106
rfemur -11.7373 -4.47453 35.7475
rtibia 21.1528
rfoot -18.6403 8.98897
rtoes -10.2846
lfemur -21.7544 -4.32269 -0.600849
ltibia 36.8664
lfoot -20.8156 3.92661
ltoes -29.3168
818
root -5.08507 15.7534 33.7878 123.494 -76.3101 -116.14
lowerback -8.76772 1.98623 7.41244
upperback -3.538 1.78153 2.86955
thorax 1.36936 0.772815 -1.0054
lowerneck 27.6157 -9.99177 -22.5124
upperneck -5.32443 -29.405 52.9617
head 9.37176 -21.7493 29.838
rclavicle 5.49143e-015 4.05521e-014
rhumerus -32.4749 10.0662 -92.4016
rradius 25.8029
rwrist 21.2285
rhand -6.71262 3.67328
rfingers 7.12502
rthumb 19.1472 -25.4042
lclavicle 5.49143e-015 4.05521e-014
lhumerus -41.8403 -12.3043 95.2303
lradius 33.0833
lwrist 40.1011
lhand -17.036 -16.6516
lfingers 7.12502
lthumb 9.20063 13.1277
rfemur -11.6847 -4.36016 35.6353
rtibia 21.0407
rfoot -18.5859 8.92188
rtoes -10.4424
lfemur -21.6886 -4.03753 -0.721433
ltibia 36.7334
lfoot -20.8368 3.64875
ltoes -29.3678
